<svg id="logo_white" data-name="logo white" xmlns="http://www.w3.org/2000/svg" viewBox="0 0 809.67 135.01"><defs><style>.cls-1{fill:#fff;}</style></defs><title>AlohaIcon_white</title><path class="cls-1" d="M886.4,736.89l-13.11,39.7H856.44l42.88-126.21H919l43.07,126.21H944.64l-13.48-39.7Zm41.39-12.73-12.36-36.33c-2.81-8.24-4.69-15.73-6.56-23h-.37c-1.87,7.49-3.93,15.17-6.37,22.84l-12.36,36.52Z" transform="translate(-856.44 -643.64)"/><path class="cls-1" d="M979.47,643.64h16.47v133H979.47Z" transform="translate(-856.44 -643.64)"/><path class="cls-1" d="M1105.67,730.53c0,33.51-23.22,48.12-45.12,48.12-24.53,0-43.45-18-43.45-46.63,0-30.33,19.85-48.12,44.94-48.12C1088.07,683.9,1105.67,702.81,1105.67,730.53Zm-71.9.93c0,19.85,11.42,34.83,27.52,34.83,15.73,0,27.53-14.79,27.53-35.2,0-15.36-7.68-34.83-27.15-34.83S1033.77,714.23,1033.77,731.46Z" transform="translate(-856.44 -643.64)"/><path class="cls-1" d="M1126.46,643.64h16.48v56.55h.37a30.57,30.57,0,0,1,11.8-11.61A33.89,33.89,0,0,1,1172,683.9c12.17,0,31.65,7.49,31.65,38.76v53.93h-16.48V724.53c0-14.6-5.43-27-21-27-10.67,0-19.09,7.49-22.09,16.48-.94,2.24-1.12,4.68-1.12,7.86v54.68h-16.48Z" transform="translate(-856.44 -643.64)"/><path class="cls-1" d="M1309.77,710.49c0-9.36-.19-17-.75-24.53h14.61l.93,15h.38c4.49-8.61,15-17,30-17,12.54,0,32,7.49,32,38.57v54.12h-16.48V724.35c0-14.61-5.43-26.78-21-26.78-10.86,0-19.29,7.68-22.1,16.85a23.68,23.68,0,0,0-1.12,7.68v54.49h-16.48Z" transform="translate(-856.44 -643.64)"/><path class="cls-1" d="M1492,643.64V753.18c0,8.06.18,17.23.75,23.41h-14.8l-.75-15.73h-.37c-5.06,10.11-16.11,17.79-30.9,17.79-21.91,0-38.76-18.54-38.76-46.06-.19-30.15,18.54-48.69,40.63-48.69,13.86,0,23.22,6.55,27.34,13.86h.38V643.64Zm-16.48,79.21a29.19,29.19,0,0,0-.75-6.93c-2.44-10.49-11.42-19.1-23.78-19.1-17,0-27.15,15-27.15,35,0,18.35,9,33.52,26.77,33.52,11.05,0,21.16-7.31,24.16-19.67a28.63,28.63,0,0,0,.75-7.11Z" transform="translate(-856.44 -643.64)"/><path class="cls-1" d="M1528.48,734.27c.37,22.28,14.6,31.46,31.08,31.46,11.8,0,18.92-2.06,25.09-4.68l2.81,11.8c-5.8,2.62-15.73,5.61-30.15,5.61-27.9,0-44.56-18.35-44.56-45.69s16.1-48.87,42.51-48.87c29.58,0,37.45,26,37.45,42.69a61.24,61.24,0,0,1-.57,7.68Zm48.31-11.8c.19-10.48-4.31-26.77-22.85-26.77-16.66,0-24,15.35-25.28,26.77Z" transform="translate(-856.44 -643.64)"/><path class="cls-1" d="M1610.87,759.74a43.18,43.18,0,0,0,21.72,6.55c12,0,17.6-6,17.6-13.48,0-7.87-4.68-12.17-16.85-16.67-16.29-5.8-24-14.79-24-25.65,0-14.61,11.8-26.59,31.27-26.59a45.18,45.18,0,0,1,22.28,5.62l-4.12,12a35.21,35.21,0,0,0-18.53-5.24c-9.74,0-15.17,5.62-15.17,12.36,0,7.49,5.43,10.86,17.22,15.35,15.73,6,23.79,13.86,23.79,27.34,0,15.92-12.36,27.15-33.9,27.15-9.92,0-19.1-2.43-25.46-6.18Z" transform="translate(-856.44 -643.64)"/><path class="cls-1" d="M1290.08,731.52a2.67,2.67,0,0,0-2.71,2.71v37h-19.21V756.14a2.67,2.67,0,0,0-2.61-2.66h-13.89a2.74,2.74,0,0,0-2.76,2.66v15.12h-19.16v-35.8a2.66,2.66,0,0,0-5.32,0V774a2.63,2.63,0,0,0,2.61,2.62h24.63a2.63,2.63,0,0,0,2.61-2.62V758.85h8.57V774a2.66,2.66,0,0,0,2.71,2.62h24.53a2.63,2.63,0,0,0,2.61-2.62V734.23A2.65,2.65,0,0,0,1290.08,731.52Z" transform="translate(-856.44 -643.64)"/><path class="cls-1" d="M1304.8,733.64l-21.37-21.47V697.53a2.71,2.71,0,0,0-2.76-2.7,2.65,2.65,0,0,0-2.61,2.7v9.27l-17.63-17.74a2.63,2.63,0,0,0-1.83-.84,2.71,2.71,0,0,0-1.92.84l-44.28,44.28a2.65,2.65,0,0,0,3.75,3.74l42.45-42.35L1301,737.48a2.63,2.63,0,0,0,1.92.7,3,3,0,0,0,1.92-.7A2.78,2.78,0,0,0,1304.8,733.64Z" transform="translate(-856.44 -643.64)"/></svg>