<svg xmlns="http://www.w3.org/2000/svg" viewBox="0 0 475.66 373.48"><defs><style>.cls-1,.cls-2{fill:#fff;}.cls-1{stroke:#fff;stroke-miterlimit:10;stroke-width:5px;}.cls-2{font-size:70px;font-family:Futura-Medium, Futura;}.cls-3{letter-spacing:0.04em;}.cls-4{letter-spacing:0.01em;}</style></defs><title>Asset 5</title><g id="Layer_2" data-name="Layer 2"><g id="Txt_Base" data-name="Txt Base"><path class="cls-1" d="M358.72,173.87c-11.36-24.76-35.07-65.67-84.34-125.3C182.74-62.34,214.8,59.06,218.7,80.83c.69,3.88,3.09,13.13,6.32,24.9,74,43.31,89.77,70,89.77,70l-61.51,28,0,.1,28-.08,68.89-27.43S353.37,175.25,358.72,173.87Z"/><path class="cls-1" d="M436.71,176.38c-28.32-12.79-62.41-6.54-78-2.51-5.35,1.38-8.53,2.51-8.53,2.51L281.3,203.81l-159,63.35c20.61,8,46.21,16.84,52.56,18.48a7.11,7.11,0,0,0,2.94.13c16.66-2.85,170-32.11,244.23-53.69C500.53,209.24,474.76,193.56,436.71,176.38Z"/><path class="cls-1" d="M4.73,232.08c-15.95,30.2,58.92,58.42,58.92,58.42l58.6-23.34c-3.81-1.47-7.44-2.91-10.75-4.27C94.17,255.78,20.68,201.87,4.73,232.08Z"/><path class="cls-1" d="M225,105.73c-16.92-9.9-36.87-20.66-60.38-32.18-129.21-63.27-49.95,34.12-37.43,52.35,9.2,13.4,82.26,97.85,82.26,97.85l43.81-20,61.51-28S299,149,225,105.73Z"/><text class="cls-2" transform="translate(102.14 353.28) scale(0.9 1)">tu<tspan class="cls-3" x="57.29" y="0">r</tspan><tspan class="cls-4" x="86.54" y="0">y</tspan><tspan x="125.2" y="0">latina</tspan></text></g></g></svg>