<svg xmlns="http://www.w3.org/2000/svg" viewBox="0 0 770.8 125.8"><defs><style>.cls-1{fill:#fff;}</style></defs><title>tx</title><g id="Layer_2" data-name="Layer 2"><g id="art_3"><g id="tx"><path class="cls-1" d="M79.39,96.29H31l-12.6,27.46H0L56,3.56l54,120.19H91.26Zm-7-16L55.66,41.79,38.09,80.25Z"/><path class="cls-1" d="M137.4.05v123.7H120.92V.05Z"/><path class="cls-1" d="M154.91,87.57A35.41,35.41,0,0,1,166,61.28a39,39,0,0,1,54.05.07,36.35,36.35,0,0,1,11,26.81q0,16-11.06,26.88T192.63,125.8q-16,0-26.88-11T154.91,87.57Zm16.84.29q0,10.69,5.72,16.92t15.45,6.3q9.68,0,15.45-6.22t5.79-16.63q0-10.4-5.79-16.63t-15.45-6.29q-9.45,0-15.31,6.29T171.75,87.86Z"/><path class="cls-1" d="M248.44.05h16.48v58.3q8.79-7.92,19.41-7.91,12.07,0,19.33,7.83,6.15,6.82,6.15,21.76v43.72H293.33V81.57q0-8.58-3-12.42t-9.78-3.84q-8.64,0-12.16,5.34t-3.44,18.61v34.49H248.44Z"/><path class="cls-1" d="M469.56,52.42h16.55V59q8.64-8.58,19.48-8.57,12.45,0,19.41,7.83,6,6.67,6,21.76v43.72H514.45V83.91q0-10.55-2.93-14.58t-10.4-4.1q-8.21,0-11.64,5.42t-3.37,18.68v34.42H469.56Z"/><path class="cls-1" d="M604.39.05H621v123.7H604.39v-7.47q-9.74,9.52-22,9.52A31.39,31.39,0,0,1,558,115.11q-9.6-10.9-9.59-27.25,0-16,9.59-26.66a30.64,30.64,0,0,1,24-10.76q12.53,0,22.41,10.25ZM565.28,87.86q0,10.26,5.5,16.7A18,18,0,0,0,585,111.08q9.15,0,14.79-6.3,5.64-6.51,5.64-16.55t-5.64-16.55a18.64,18.64,0,0,0-14.65-6.37,18.24,18.24,0,0,0-14.21,6.44A23.77,23.77,0,0,0,565.28,87.86Z"/><path class="cls-1" d="M706.71,92H655.59q.66,8.79,5.71,14a17.45,17.45,0,0,0,13,5.12,16.83,16.83,0,0,0,10.18-2.93q3.94-2.93,9-10.84l13.91,7.77a55.56,55.56,0,0,1-6.81,9.41,35.92,35.92,0,0,1-7.69,6.44,30.64,30.64,0,0,1-8.86,3.7,43.27,43.27,0,0,1-10.33,1.17q-16,0-25.63-10.25t-9.67-27.39q0-16.92,9.37-27.4,9.45-10.32,25-10.32t24.91,10q9.07,10,9.08,27.61ZM689.79,78.49q-3.43-13.18-16.62-13.18a17.1,17.1,0,0,0-5.64.91,16.06,16.06,0,0,0-4.8,2.64A16.72,16.72,0,0,0,659,73a19.43,19.43,0,0,0-2.34,5.49Z"/><path class="cls-1" d="M766.19,64.57l-13.63,7.25q-3.22-6.58-8-6.59a5.49,5.49,0,0,0-3.88,1.5,5,5,0,0,0-1.61,3.85q0,4.1,9.52,8.13,13.11,5.64,17.65,10.4t4.54,12.82a22.45,22.45,0,0,1-7.62,17.28,25.9,25.9,0,0,1-17.87,6.59q-17.94,0-25.41-17.5L734,101.78q2.92,5.13,4.47,6.52a10.16,10.16,0,0,0,7.18,2.78q8.34,0,8.35-7.62,0-4.38-6.45-8.2c-1.66-.83-3.32-1.63-5-2.42s-3.35-1.58-5-2.41q-7.18-3.53-10.11-7-3.74-4.47-3.74-11.5A20.37,20.37,0,0,1,730,56.52a22.34,22.34,0,0,1,15.83-6.08Q759.53,50.44,766.19,64.57Z"/><path class="cls-1" d="M433.43,61.34a3.7,3.7,0,0,0-3.75,3.75v51.28h-26.6V95.43a3.71,3.71,0,0,0-3.62-3.68H380.23a3.79,3.79,0,0,0-3.82,3.68v20.94H349.87V66.8a3.68,3.68,0,0,0-7.36,0v53.33a3.64,3.64,0,0,0,3.61,3.62h34.11a3.64,3.64,0,0,0,3.61-3.62V99.19h11.87v20.94a3.67,3.67,0,0,0,3.75,3.62h34a3.64,3.64,0,0,0,3.62-3.62v-55A3.67,3.67,0,0,0,433.43,61.34Z"/><path class="cls-1" d="M453.8,62.89,424.19,33.16V12.89a3.75,3.75,0,0,0-3.82-3.74,3.66,3.66,0,0,0-3.61,3.74V25.73L392.34,1.16A3.62,3.62,0,0,0,389.82,0a3.72,3.72,0,0,0-2.67,1.16L325.83,62.49A3.67,3.67,0,1,0,331,67.67L389.82,9l58.66,59.21a3.63,3.63,0,0,0,2.66,1,4.13,4.13,0,0,0,2.66-1A3.89,3.89,0,0,0,453.8,62.89Z"/></g></g></g></svg>