<svg xmlns="http://www.w3.org/2000/svg" viewBox="0 0 821.83 203.54"><defs><style>.cls-1{font-size:187.25px;font-family:MyriadPro-Regular, Myriad Pro;}.cls-1,.cls-3{fill:#fff;}.cls-2{letter-spacing:0em;}</style></defs><title>Asset 5</title><g id="Layer_2" data-name="Layer 2"><g id="logo_white" data-name="logo white"><text class="cls-1" transform="translate(0 156.73)"><tspan class="cls-2">A</tspan><tspan x="114.04" y="0" xml:space="preserve">loh  ndes</tspan></text><path class="cls-3" d="M438.32,111.66a2.67,2.67,0,0,0-2.71,2.71v37H416.4V136.28a2.67,2.67,0,0,0-2.61-2.66H399.9a2.74,2.74,0,0,0-2.76,2.66V151.4H378V115.6a2.66,2.66,0,0,0-5.32,0v38.51a2.63,2.63,0,0,0,2.61,2.62H399.9a2.63,2.63,0,0,0,2.61-2.62V139h8.57v15.12a2.66,2.66,0,0,0,2.71,2.62h24.53a2.63,2.63,0,0,0,2.61-2.62V114.37A2.65,2.65,0,0,0,438.32,111.66Z"/><path class="cls-3" d="M453,113.77,431.67,92.31V77.67a2.71,2.71,0,0,0-2.76-2.7,2.65,2.65,0,0,0-2.61,2.7v9.27L408.67,69.2a2.63,2.63,0,0,0-1.83-.84,2.73,2.73,0,0,0-1.92.84l-44.28,44.28a2.65,2.65,0,0,0,3.75,3.74l42.45-42.35,42.36,42.75a2.63,2.63,0,0,0,1.92.69,3,3,0,0,0,1.92-.69A2.79,2.79,0,0,0,453,113.77Z"/></g></g></svg>